<?xml version="1.0" encoding="utf-8"?>
<!-- Generator: Adobe Illustrator 20.0.0, SVG Export Plug-In . SVG Version: 6.00 Build 0)  -->
<svg version="1.1"
	 id="svg4057" inkscape:version="0.91 r13725" sodipodi:docname="light-wide-1.svg" xmlns:cc="http://creativecommons.org/ns#" xmlns:dc="http://purl.org/dc/elements/1.1/" xmlns:inkscape="http://www.inkscape.org/namespaces/inkscape" xmlns:rdf="http://www.w3.org/1999/02/22-rdf-syntax-ns#" xmlns:sodipodi="http://sodipodi.sourceforge.net/DTD/sodipodi-0.dtd" xmlns:svg="http://www.w3.org/2000/svg"
	 xmlns="http://www.w3.org/2000/svg" xmlns:xlink="http://www.w3.org/1999/xlink" x="0px" y="0px" viewBox="0 0 239.9 62.3"
	 style="enable-background:new 0 0 239.9 62.3;" xml:space="preserve">
<style type="text/css">
	.st0{fill:#56AC1D;}
	.st1{fill:#949494;}
</style>
<sodipodi:namedview  bordercolor="#666666" borderlayer="false" borderopacity="1.0" fit-margin-bottom="0" fit-margin-left="0" fit-margin-right="0" fit-margin-top="0" id="base" inkscape:current-layer="layer1" inkscape:cx="271.31351" inkscape:cy="-40.407035" inkscape:document-units="px" inkscape:pageopacity="0.0" inkscape:pageshadow="2" inkscape:showpageshadow="false" inkscape:window-height="666" inkscape:window-maximized="0" inkscape:window-width="1011" inkscape:window-x="2360" inkscape:window-y="241" inkscape:zoom="1.4" pagecolor="#ffffff" showborder="true" showgrid="true" showguides="false">
	<inkscape:grid  id="grid4093" originx="-10.04131" originy="-961.96023" type="xygrid"></inkscape:grid>
</sodipodi:namedview>
<g id="layer1" transform="translate(-10.04131,-12.483937)" inkscape:groupmode="layer" inkscape:label="Layer 1">
	<path id="path3751" inkscape:connector-curvature="0" class="st0" d="M53.3,45.6h15.2v0.1l-7.6,4.5h-8.2c-1.8,0-3.4,1.5-5,4.5
		c-1.1,1.8-1.7,2.9-1.7,3.5c0.1,0.7,0.5,1,1.1,1l0.2,0.1l0.7-0.1h10.3l0.1,0.1h0.1c-1.6,3-2.5,4.5-2.6,4.5H46l-0.7,0.1l-0.6-0.1
		h-2.3c-1.6,0-2.6-0.5-2.9-1.5c-0.1-0.1-0.1-0.4-0.2-0.9c0-1,0.8-2.6,2.3-5l4.2-7.1C47.8,46.9,50.3,45.6,53.3,45.6z"/>
	<path id="path3753" inkscape:connector-curvature="0" class="st0" d="M72.6,45.7L72.6,45.7l-7.8,13.6h15.8v0.1l-7.9,4.5H57
		c0-0.1,1.7-3.1,5-8.9l5.4-9.4l0.1-0.1L72.6,45.7L72.6,45.7z"/>
	<path id="path3755" inkscape:connector-curvature="0" class="st0" d="M107.5,45.7L107.5,45.7l-7.6,4.6H89.3l-1.5,2.8h7.3v0.1
		c-4,2.3-6.1,3.5-6.3,3.6h-3.1c-0.7,1.1-1.2,1.9-1.5,2.7h15.7l0.1,0.1h0.1c-1.5,2.7-2.4,4.2-2.6,4.4H76.6l-0.1-0.1h-0.1l10.3-18.2
		C86.7,45.7,107.5,45.7,107.5,45.7z"/>
	<path id="path3757" inkscape:connector-curvature="0" class="st0" d="M119.3,45.6c2,0,3.3,0.6,3.8,1.8l0.1,0.7v0.2
		c0,0.8-0.7,2.3-2.1,4.6c-4.1,7.2-6.3,10.9-6.4,11.1h-5.1l2.5-4.5h-7.9c-0.1,0.1-1,1.7-2.6,4.5l-0.1,0.1h-5.2V64
		c5.1-8.9,7.8-13.7,8.3-14.4c1.4-1.5,2.5-2.5,3.4-2.8c1.1-0.6,2.2-0.9,3.3-1L119.3,45.6L119.3,45.6z M112,45.7h7.7
		c1.8,0,2.9,0.7,3.5,2l0.1,0.4c0,0.9-0.9,2.7-2.7,5.5c-1.8,3.2-3.7,6.5-5.9,10.2l-0.2,0.1h-4.7l-0.1-0.1l2.4-4.3v-0.2h-7.9
		c-0.1,0.1-1,1.7-2.6,4.5l-0.3,0.1h-4.8l-0.1-0.1h-0.1c5-8.9,7.8-13.6,8.2-14.2C106.8,47,109.3,45.7,112,45.7L112,45.7z M106.7,54.9
		h7c0.8,0,1.2-0.1,1.2-0.4c1.2-1.7,1.8-2.8,1.8-3.2v-0.4c-0.2-0.4-0.7-0.7-1.6-0.7h-3.2C109.8,50.3,108,51.8,106.7,54.9L106.7,54.9z
		 M106.8,54.9h7.9c1.3-2.1,2-3.2,2-3.5v-0.2c0-0.6-0.6-0.9-1.9-0.9h-2.6c-2,0-3.6,1.1-4.7,3.4C107.1,54.4,106.8,54.8,106.8,54.9z"/>
	<path id="path3759" inkscape:connector-curvature="0" class="st0" d="M138.5,45.7c1.9,0,3.1,0.5,3.7,1.4c0.1,0.3,0.2,0.6,0.2,0.9
		v0.1c0,0.9-0.7,2.4-2.2,4.7c-3.5,6.4-5.6,10.1-6.3,11.1h-5.1v-0.1l6.6-11.7c0.2-0.4,0.3-0.7,0.3-1v-0.2c0-0.5-0.4-0.7-1.1-0.7h-6
		c-5.1,9-7.7,13.6-7.9,13.7h-5c0-0.1,1.7-3.2,5.1-9.1l5.3-9.1L138.5,45.7L138.5,45.7z"/>
	<path id="path3761" inkscape:connector-curvature="0" class="st1" d="M145.6,45.7h20.8v0.1l-7.5,4.5h-10.6c-0.1,0-0.6,0.9-1.7,2.8
		h7.3v0.1l-6.1,3.5h-3.4c-0.9,1.8-2.3,4.2-4.1,7.2h-5.1v-0.1L145.6,45.7L145.6,45.7z"/>
	<path id="path3763" inkscape:connector-curvature="0" class="st1" d="M170.6,45.7L170.6,45.7l-7.8,13.6h15.8v0.1l-7.9,4.5H155
		c0-0.1,1.7-3.1,5-8.9l5.4-9.4l0.1-0.1L170.6,45.7L170.6,45.7z"/>
	<path id="path3765" inkscape:connector-curvature="0" class="st1" d="M184.6,45.7h5.1l0.1,0.1l-10.3,18.1h-5.1
		C174.8,63.2,178.2,57.1,184.6,45.7z"/>
	<path id="path3767" inkscape:connector-curvature="0" class="st1" d="M196.1,45.7h15.2v0.1l-7.6,4.5h-8.1c-1.8,0-3.4,1.5-4.9,4.5
		c-1,1.5-1.6,2.6-1.7,3.3v0.4c0,0.5,0.4,0.8,1.3,0.9h5.6c0.1,0,0.6-0.9,1.5-2.7h-7.7v-0.1l6.1-3.5h8.7l0.1,0.1h0.1L198.6,64h-13.1
		c-2.3,0-3.4-0.8-3.4-2.3c0-1.1,0.8-2.8,2.4-5.3c2.2-4.1,3.8-6.7,4.8-7.8C191.4,46.7,193.7,45.7,196.1,45.7L196.1,45.7z"/>
	<path id="path3769" inkscape:connector-curvature="0" class="st1" d="M216.1,45.7L216.1,45.7L212,53h1.9l5.9,0.1l4.2-7.4h5l0.1,0.1
		L218.8,64h-0.1l-5.1-0.1c0-0.1,1.3-2.5,4-7.1v-0.1h-7.8l-4.2,7.2h-5.1c0.2-0.6,1.7-3.2,4.4-7.9l5.9-10.3L216.1,45.7L216.1,45.7z"/>
	<path id="path3771" inkscape:connector-curvature="0" class="st1" d="M245.1,45.6l4.8,0.1v0.1l-7.5,4.6h-4.9
		c-5.1,9.1-7.7,13.6-7.8,13.6h-5.1v-0.1l7.8-13.6H225v-0.1l7.6-4.6H245.1L245.1,45.6z"/>
	<path id="path3773" inkscape:connector-curvature="0" class="st1" d="M11.1,43.6l1.1,0.1l1.5-0.3l1.7-0.8l1.8-1.2l1.4-1.2l5.9,0.1
		l5.7-0.6l0.7,0.9l0.2,0.2l0.2,0.1h0.2h0.2l0.2-0.1l0.2-0.1l0.1-0.2l0.1-0.3l0,0l0.2,0.3l-0.9,1.8l0.1,0.1H32l-0.6,0.9l0,0l-0.2,0.2
		l-4,8.2H27L24.8,52l-2.3,0.9l-2.3,1.4L18,56.2l-2,2.3l-1.7,2.6L13,63.9l-0.7,2.8l-0.1,2.7l0.5,2.3l1.3,1.8l1.9,1.1l2.5,0.2l2.9-0.8
		l3-1.8l2.8-2.5l2.4-3.1l1.7-3.3l1-3.2l0.2-2.9l-0.5-2.4l-0.4-0.6l0.5-0.9l2.7-6.2l0.1,0.1l0.3,0.1l0.3,0.1h0.3h0.2l0.2-0.1l0.1-0.1
		l0.1-0.3v-0.2l-0.1-0.2l-0.1-0.2l-0.8-0.9l0.1-0.1l0.1-1.4h0.4l0,0l0.8-1.8l1.4-1.1l0.7-1.7l1.8-0.2l0.7-0.6l1.9-0.2l0,0l0.1-0.4
		l1.4,0.4h0.1l0.7,1l0.2,0.2H46h0.2h0.3l0.2-0.1l0.1-0.2l0.1-0.2l0.1-0.3v-0.3v-0.3V38l6.5-0.7l0.7-0.1l0.4,0.5l2,1.2l2.7,0.7
		l3.3,0.1l3.6-0.6l3.6-1.3l3.2-1.9l2.6-2.4l1.7-2.5l0.6-2.5l-0.4-2.2l-1.3-1.8l-2-1.3l-2.5-0.7l-2.8-0.1l-3,0.4L63,23.6l-2.7,1.2
		l-2.4,1.5l-2,1.8l-1.5,2l-1,2v0.3l-8.6,1.3h-0.3l0,0l-1,0.3l0.1-0.3l-0.1-0.1l-1.9,0.3l-0.5-0.5l0.3,0.1h0.3H42l0.2-0.1l0.2-0.1
		l0.1-0.2l0.1-0.2v-0.2v-0.2l-0.1-0.2l-0.6-0.9l2.3-5.3l1.7-5.7l1.6-1l1.6-1.4l1.2-1.4l0.8-1.3l0.2-1.1L51,13.3l-1-0.7l-1.1-0.2
		l-1.5,0.1l-1.6,0.4l-1.7,0.6l-1.7,0.9l-1.5,1.1l-1.4,1.2l-1.2,1.2l-0.8,1.2L37,20.2v1l0.4,0.7l0.9,0.4l1.3,0.1l1.7-0.3l0.2-0.1
		l-3.6,7.5l-0.1,0.2l0,0l-0.2,0.8l-0.4,0.1l0,0L36.5,32l-4.3,3.2l-1.5,0.2l-0.2,0.4h-0.8l0,0h-0.2L21.6,37l0.2-0.2l0.8-1.5l0.3-1.3
		l-0.1-1L22,32.3L21.1,32l-1.2,0.1l-1.3,0.4l-1.5,0.7l-1.5,1l-1.5,1.3l-1.3,1.4l-1.1,1.4l-0.9,1.4L10.3,41L10,42.2l0.3,0.9
		L11.1,43.6L11.1,43.6z M44.2,22.5L44.2,22.5L44.2,22.5l-0.4,0.2l0.3-0.6l0,0l0,0l0,0v0.1v0.1v0.1L44.2,22.5L44.2,22.5L44.2,22.5z
		 M43.6,23.1L43.6,23.1L43.6,23.1L43.6,23.1L43.6,23.1L43.6,23.1l0.1,0.2l-0.1,0.1l-0.1,0.1h-0.1l-0.1,0.1l0,0L43.6,23.1z
		 M43.3,23.9L43.3,23.9h0.2l0,0l0,0V24v0.1l-0.1,0.1l-0.1,0.1l-0.1,0.1l-0.1,0.1l-0.1,0h-0.1L43.3,23.9
		C43.2,23.9,43.3,23.9,43.3,23.9z M41.2,32.5L41.2,32.5H41h-0.1h-0.1l0.1-0.3H41l0.1,0.1l0.1,0.1V32.5L41.2,32.5
		C41.3,32.4,41.2,32.5,41.2,32.5z M42.1,36.4L42.1,36.4L42.1,36.4L42.1,36.4z M46.3,38.4L46.3,38.4L46.3,38.4L46.3,38.4z M46.1,38.2
		L46.1,38.2L46.1,38.2L46.1,38.2l-0.2-0.1l0,0L46.1,38.2C46.1,38,46.1,38.2,46.1,38.2z M35,46.1L35,46.1l0.2,0.2l0,0h-0.1H35h-0.1
		L35,46.1L35,46.1z M38.1,38.8L38.1,38.8L38.1,38.8L38.1,38.8L38.1,38.8L38.1,38.8L38.1,38.8L38.1,38.8L38.1,38.8z M38.2,38.7
		L38.2,38.7L38.2,38.7L38.2,38.7z M38.1,35.6L38.1,35.6L38.1,35.6C38,35.6,38.1,35.6,38.1,35.6z M40.9,25.3L40.9,25.3v-0.2V25l0.9-2
		l0.4-0.1l0,0V23v0.1l-0.7,2.2H40.9C40.9,25.4,40.9,25.3,40.9,25.3z M43,21.8L43,21.8L43,21.8C43.1,21.8,43,21.8,43,21.8z
		 M41.3,25.8L41.3,25.8L41.3,25.8L41.3,25.8h-0.2L41,25.7l0,0l0,0h0.1h0.1h0.1C41.3,25.7,41.3,25.8,41.3,25.8z M38,34.3L38,34.3
		L38,34.3L38,34.3z M52.9,33.8L52.9,33.8l-0.1-0.2v-0.1l0.1-0.1H53C53,33.3,52.9,33.8,52.9,33.8z M43.3,21.8L43.3,21.8L43.3,21.8
		L43.3,21.8z M36.9,37L36.9,37L36.9,37L36.9,37z M36.8,33.9L36.8,33.9L36.8,33.9L36.8,33.9z M33.8,37.4L33.8,37.4L33.8,37.4
		L33.8,37.4z M35,37.8L35,37.8L35,37.8L35,37.8z M33.9,36L33.9,36L33.9,36L33.9,36z M28.2,51.9L28.2,51.9l0.1-0.2l0.1-0.1l0.1-0.1
		l0,0h0.1l0.1,0.1l0.1,0.1l0.1,0.2V52C28.9,52,28.2,51.9,28.2,51.9z M30.6,53l-0.5-0.3l0.4-0.9l0.1-0.1l0.1-0.1H31l0,0l0.1,0.1
		l0.1,0.2v0.2v0.2v0.2l-0.1,0.2l-0.3,0.6L30.6,53z M34.5,42.1L34.5,42.1L34.5,42.1L34.5,42.1z M53.3,36l0.2,0.3l-0.4,0.1h-0.2h-0.2
		l-0.2-0.1l-0.2-0.1l-0.1-0.1L52.1,36l0.1-0.4l0,0h0.2l0.7-0.1C53.2,35.4,53.3,36,53.3,36z M41.3,32.5L41.3,32.5L41.3,32.5
		L41.3,32.5z M42.9,24.9L42.9,24.9l0.6-0.2l-0.2,0.7v0.1l0,0h-0.1l-0.1-0.1L43,25.3l-0.1-0.1v-0.1C42.9,25,42.9,24.9,42.9,24.9z
		 M35.2,34.6L35.2,34.6L35.2,34.6L35.2,34.6z M35,34.7L35,34.7L35,34.7L35,34.7z M31,39.5L31,39.5l0.4-0.1l0,0v0.1v0.1v0.1l-0.1,0.1
		l0,0l-0.1-0.1l-0.1-0.1L31,39.7V39.5z M24.3,37.3L24.3,37.3h0.2h0.1l-0.3,0.5h-2.2H22h-0.1l0,0l0.2-0.3L24.3,37.3z M25,37.6
		L25,37.6l0.1,0.2v0.1l0,0H25h-0.2l0,0v-0.1L25,37.6L25,37.6C24.9,37.6,25,37.6,25,37.6z M21.3,37.6L21.3,37.6L21.3,37.6L21.3,37.6z
		 M24.1,39.6L24.1,39.6h-0.8l0.3-0.5h0.1l0.1,0.1l0.1,0.1l0.1,0.1L24.1,39.6L24.1,39.6L24.1,39.6L24.1,39.6z M21.1,39.7L21.1,39.7
		L21.1,39.7h-0.2h-0.1h-0.1v-0.1l0,0l0,0l0.7-0.1L21.1,39.7L21.1,39.7L21.1,39.7z M21.7,39.4L21.7,39.4L21.7,39.4
		C21.7,39.3,21.7,39.4,21.7,39.4z M22.6,39.4L22.6,39.4L22.6,39.4L22.6,39.4z M23.2,39.1L23.2,39.1l-0.1,0.2L23,39.4l-0.1,0.1h-0.1
		h-0.1h-0.1l0,0l0,0v-0.1v-0.1l0,0L23.2,39.1L23.2,39.1z M22.2,39.3L22.2,39.3L22,39.4h-0.1h-0.1h-0.1l0,0l0,0v-0.1l0,0H22.2
		C22.3,39.2,22.2,39.3,22.2,39.3z"/>
</g>
</svg>
